<svg version="1.0" xmlns="http://www.w3.org/2000/svg"
 width="384.000000pt" height="384.000000pt" viewBox="0 0 384.000000 384.000000"
 preserveAspectRatio="xMidYMid meet">
<g transform="translate(0.000000,384.000000) scale(0.100000,-0.100000)"
fill="#de0e0e" stroke="none">
<path d="M313 2209 c-51 -15 -101 -88 -77 -112 4 -4 24 3 45 15 83 47 93 4 44
-201 -41 -173 -39 -215 7 -259 32 -29 102 -43 158 -31 47 10 115 51 130 78 5
9 10 14 12 11 2 -3 16 -22 31 -42 33 -45 76 -59 143 -47 65 12 113 48 152 112
28 47 72 184 72 227 0 9 14 26 30 38 39 29 43 78 6 68 -22 -5 -24 -2 -30 45
-9 69 -48 109 -104 109 -130 0 -144 -183 -18 -235 20 -9 36 -17 36 -18 0 -16
-37 -122 -56 -159 -55 -109 -143 -119 -193 -21 -9 18 -9 29 3 50 28 55 57 168
59 231 1 56 -1 67 -22 83 -29 23 -98 25 -128 4 -45 -31 -52 -135 -21 -298 10
-55 9 -59 -13 -83 -53 -57 -127 -72 -154 -31 -17 26 -11 79 26 246 25 109 21
164 -13 198 -28 27 -79 36 -125 22z"/>
<path d="M2332 2203 c-44 -21 -69 -55 -77 -103 -10 -61 11 -107 86 -187 61
-63 69 -77 69 -111 0 -50 -32 -82 -82 -82 -60 0 -71 20 -63 112 l7 78 -25 0
c-29 0 -70 -38 -88 -83 -19 -48 -39 -67 -71 -67 -41 0 -44 22 -14 89 14 32 26
72 26 90 0 60 -81 79 -126 29 -15 -16 -19 -36 -19 -92 0 -55 -5 -79 -22 -109
-29 -48 -49 -56 -75 -29 l-21 20 23 32 c32 45 51 115 40 145 -20 54 -104 62
-151 16 -24 -25 -29 -37 -29 -78 1 -26 7 -65 14 -86 13 -36 13 -39 -10 -53
-58 -38 -86 21 -66 139 15 85 15 114 1 123 -21 13 -71 6 -91 -13 -17 -15 -19
-28 -16 -100 l3 -82 -45 -46 c-66 -67 -80 -60 -80 43 0 35 8 74 21 102 16 36
18 49 8 66 -17 33 -56 51 -78 37 -10 -6 -36 -9 -58 -6 -114 15 -219 -75 -244
-211 -12 -66 -1 -111 35 -145 47 -44 144 -40 196 9 18 17 33 30 35 30 2 0 6
-11 9 -25 15 -60 100 -49 174 22 25 23 46 42 47 40 0 -1 10 -24 21 -52 19 -46
23 -50 52 -49 19 1 52 17 81 37 l49 36 24 -35 c12 -19 33 -37 45 -40 26 -7 74
23 120 74 31 36 32 36 53 17 22 -20 78 -26 116 -12 16 5 23 2 33 -16 23 -42
69 -62 146 -62 202 0 303 190 174 330 -42 45 -46 55 -26 55 7 0 25 13 40 28
22 22 27 38 27 76 0 26 -5 56 -11 68 -24 44 -125 62 -187 31z m-988 -320 c-9
-102 -14 -121 -43 -152 -36 -38 -84 -43 -102 -10 -14 28 -4 96 21 133 20 31
94 86 116 86 9 0 11 -15 8 -57z"/>
<path d="M3505 2186 c-78 -47 -144 -173 -166 -318 -9 -60 -17 -79 -42 -106
-43 -46 -67 -58 -78 -41 -16 26 -9 132 12 179 16 36 18 48 8 67 -14 26 -62 48
-81 37 -7 -4 -42 -8 -78 -9 -103 -1 -174 -57 -211 -168 -13 -39 -28 -61 -59
-85 -59 -46 -74 -40 -78 28 -2 30 -1 79 3 108 l6 52 45 0 c45 0 50 4 56 45 3
17 -3 20 -40 23 l-42 3 16 28 c14 25 15 32 3 57 -10 20 -22 29 -39 29 -20 0
-30 -11 -54 -57 -18 -36 -35 -58 -45 -58 -24 0 -41 -20 -41 -47 0 -16 6 -23
20 -23 18 0 20 -4 13 -42 -5 -24 -8 -79 -7 -123 0 -91 19 -140 57 -147 33 -6
107 17 142 46 l30 24 30 -35 c50 -57 146 -58 205 -3 18 17 33 30 35 30 2 0 6
-11 9 -25 3 -13 14 -29 24 -34 28 -15 96 7 141 46 l41 34 30 -35 c72 -81 218
-62 279 38 21 33 29 96 13 96 -5 0 -21 -14 -38 -31 -37 -39 -75 -59 -112 -59
-36 0 -58 24 -67 71 -6 34 -3 41 57 109 107 123 130 153 150 198 22 49 17 96
-12 112 -33 17 -93 11 -135 -14z m-381 -303 c-9 -102 -14 -121 -43 -152 -36
-38 -84 -43 -102 -10 -14 28 -4 96 21 133 20 31 94 86 116 86 9 0 11 -15 8
-57z"/>
</g>
</svg>
